<svg width="36" height="28" viewBox="0 0 36 28" fill="none" xmlns="http://www.w3.org/2000/svg">
<path d="M35.6799 21.4291C34.9757 22.3247 33.2522 22.9619 33.2522 22.9619L20.4363 27.6009V24.1794L29.8682 20.7942C30.9392 20.4088 31.1035 19.8601 30.2327 19.5744C29.3642 19.2864 27.7915 19.3703 26.7227 19.7558L20.4363 21.9869V18.4361L20.7985 18.3137C20.7985 18.3137 22.6143 17.6652 25.168 17.3795C27.7217 17.0961 30.8492 17.4181 33.3039 18.3545C36.0714 19.2388 36.3819 20.5358 35.6799 21.4291ZM21.6558 15.6064V6.85432C21.6558 5.82719 21.469 4.88169 20.5128 4.61414C19.7793 4.37606 19.3248 5.06308 19.3248 6.08794V28L13.4613 26.1249V0C15.9543 0.467082 19.5858 1.56903 21.5388 2.23338C26.5045 3.94979 28.1875 6.08794 28.1875 10.9061C28.1875 15.6019 25.312 17.3818 21.6558 15.6042V15.6064ZM2.70191 23.8257C-0.137566 23.014 -0.610062 21.3361 0.683678 20.3702C1.88067 19.4769 3.91465 18.8057 3.91465 18.8057L12.3228 15.7901V19.2252L6.27039 21.4087C5.2039 21.7942 5.03965 22.3406 5.90814 22.6286C6.77663 22.9142 8.34937 22.8326 9.41811 22.4472L12.3206 21.3838V24.4583L11.7423 24.5558C8.71435 25.0499 5.61271 24.7986 2.70191 23.8235V23.8257Z" fill="white"/>
</svg>
